<mxfile host="app.diagrams.net" agent="Mozilla/5.0 (X11; Linux x86_64) AppleWebKit/537.36 (KHTML, like Gecko) Chrome/136.0.0.0 Safari/537.36" version="27.0.9">
  <diagram name="Page-1" id="LXZF_V3E9vUImPniDIsB">
    <mxGraphModel dx="1360" dy="885" grid="1" gridSize="10" guides="1" tooltips="1" connect="1" arrows="1" fold="1" page="1" pageScale="1" pageWidth="827" pageHeight="1169" math="0" shadow="0">
      <root>
        <mxCell id="0" />
        <mxCell id="1" parent="0" />
        <mxCell id="i6KSr7b9u-3ymFxsB6-P-23" value="" style="rounded=0;whiteSpace=wrap;html=1;fillColor=#dae8fc;strokeColor=#6c8ebf;" parent="1" vertex="1">
          <mxGeometry x="610" y="100" width="150" height="420" as="geometry" />
        </mxCell>
        <mxCell id="i6KSr7b9u-3ymFxsB6-P-24" value="" style="rounded=0;whiteSpace=wrap;html=1;fillColor=#dae8fc;strokeColor=#6c8ebf;" parent="1" vertex="1">
          <mxGeometry x="335" y="100" width="160" height="420" as="geometry" />
        </mxCell>
        <mxCell id="i6KSr7b9u-3ymFxsB6-P-25" value="" style="aspect=fixed;sketch=0;html=1;dashed=0;whitespace=wrap;verticalLabelPosition=bottom;verticalAlign=top;fillColor=#2875E2;strokeColor=#ffffff;points=[[0.005,0.63,0],[0.1,0.2,0],[0.9,0.2,0],[0.5,0,0],[0.995,0.63,0],[0.72,0.99,0],[0.5,1,0],[0.28,0.99,0]];shape=mxgraph.kubernetes.icon2;prIcon=api" parent="1" vertex="1">
          <mxGeometry x="414" y="238" width="50" height="48" as="geometry" />
        </mxCell>
        <mxCell id="i6KSr7b9u-3ymFxsB6-P-26" value="" style="image;aspect=fixed;perimeter=ellipsePerimeter;html=1;align=center;shadow=0;dashed=0;fontColor=light-dark(#000000, #6592cd);labelBackgroundColor=default;fontSize=12;spacingTop=3;image=img/lib/ibm/blockchain/blockchain.svg;" parent="1" vertex="1">
          <mxGeometry x="83.13" y="414.32" width="60" height="60" as="geometry" />
        </mxCell>
        <mxCell id="i6KSr7b9u-3ymFxsB6-P-27" value="" style="aspect=fixed;sketch=0;html=1;dashed=0;whitespace=wrap;verticalLabelPosition=top;verticalAlign=bottom;fillColor=#2875E2;strokeColor=#ffffff;points=[[0.005,0.63,0],[0.1,0.2,0],[0.9,0.2,0],[0.5,0,0],[0.995,0.63,0],[0.72,0.99,0],[0.5,1,0],[0.28,0.99,0]];shape=mxgraph.kubernetes.icon2;prIcon=api;labelPosition=center;align=center;" parent="1" vertex="1">
          <mxGeometry x="390" y="238" width="50" height="48" as="geometry" />
        </mxCell>
        <mxCell id="i6KSr7b9u-3ymFxsB6-P-28" value="Store processed blockchain information" style="rounded=0;orthogonalLoop=1;jettySize=auto;html=1;exitX=0.995;exitY=0.63;exitDx=0;exitDy=0;exitPerimeter=0;entryX=0;entryY=0.5;entryDx=0;entryDy=0;fontSize=10;" parent="1" source="i6KSr7b9u-3ymFxsB6-P-29" target="i6KSr7b9u-3ymFxsB6-P-31" edge="1">
          <mxGeometry x="-0.1329" y="-9" relative="1" as="geometry">
            <mxPoint as="offset" />
            <Array as="points" />
          </mxGeometry>
        </mxCell>
        <mxCell id="i6KSr7b9u-3ymFxsB6-P-29" value="Transaction logger" style="aspect=fixed;sketch=0;html=1;dashed=0;whitespace=wrap;verticalLabelPosition=bottom;verticalAlign=top;fillColor=#2875E2;strokeColor=#ffffff;points=[[0.005,0.63,0],[0.1,0.2,0],[0.9,0.2,0],[0.5,0,0],[0.995,0.63,0],[0.72,0.99,0],[0.5,1,0],[0.28,0.99,0]];shape=mxgraph.kubernetes.icon2;prIcon=job" parent="1" vertex="1">
          <mxGeometry x="384" y="410" width="59" height="56.64" as="geometry" />
        </mxCell>
        <mxCell id="i6KSr7b9u-3ymFxsB6-P-30" value="Get information" style="rounded=0;orthogonalLoop=1;jettySize=auto;html=1;entryX=0.005;entryY=0.63;entryDx=0;entryDy=0;entryPerimeter=0;fontSize=10;" parent="1" source="i6KSr7b9u-3ymFxsB6-P-26" target="i6KSr7b9u-3ymFxsB6-P-29" edge="1">
          <mxGeometry x="-0.0251" y="-9" relative="1" as="geometry">
            <mxPoint as="offset" />
          </mxGeometry>
        </mxCell>
        <mxCell id="i6KSr7b9u-3ymFxsB6-P-31" value="Wallet proxy database" style="shape=rect;fillColor=#0F62FE;aspect=fixed;resizable=0;labelPosition=center;verticalLabelPosition=bottom;align=center;verticalAlign=top;strokeColor=none;fontSize=12;" parent="1" vertex="1">
          <mxGeometry x="667" y="420.32" width="48" height="48" as="geometry" />
        </mxCell>
        <mxCell id="i6KSr7b9u-3ymFxsB6-P-32" value="" style="fillColor=#ffffff;strokeColor=none;dashed=0;outlineConnect=0;html=1;labelPosition=center;verticalLabelPosition=bottom;verticalAlign=top;part=1;movable=0;resizable=0;rotatable=0;shape=mxgraph.ibm_cloud.database--postgresql" parent="i6KSr7b9u-3ymFxsB6-P-31" vertex="1">
          <mxGeometry width="24" height="24" relative="1" as="geometry">
            <mxPoint x="12" y="12" as="offset" />
          </mxGeometry>
        </mxCell>
        <mxCell id="i6KSr7b9u-3ymFxsB6-P-33" value="Prometheus" style="aspect=fixed;sketch=0;html=1;dashed=0;whitespace=wrap;verticalLabelPosition=bottom;verticalAlign=top;fillColor=#2875E2;strokeColor=#ffffff;points=[[0.005,0.63,0],[0.1,0.2,0],[0.9,0.2,0],[0.5,0,0],[0.995,0.63,0],[0.72,0.99,0],[0.5,1,0],[0.28,0.99,0]];shape=mxgraph.kubernetes.icon2;kubernetesLabel=1;prIcon=api" parent="1" vertex="1">
          <mxGeometry x="86.88" y="123.75" width="50" height="48" as="geometry" />
        </mxCell>
        <mxCell id="i6KSr7b9u-3ymFxsB6-P-35" value="K8s" style="text;html=1;align=center;verticalAlign=middle;whiteSpace=wrap;rounded=0;" parent="1" vertex="1">
          <mxGeometry x="385" y="70" width="60" height="30" as="geometry" />
        </mxCell>
        <mxCell id="i6KSr7b9u-3ymFxsB6-P-36" value="RDS" style="text;html=1;align=center;verticalAlign=middle;whiteSpace=wrap;rounded=0;" parent="1" vertex="1">
          <mxGeometry x="655" y="70" width="60" height="30" as="geometry" />
        </mxCell>
        <mxCell id="i6KSr7b9u-3ymFxsB6-P-37" value="User" style="aspect=fixed;sketch=0;html=1;dashed=0;whitespace=wrap;verticalLabelPosition=top;verticalAlign=bottom;fillColor=#2875E2;strokeColor=#ffffff;points=[[0.005,0.63,0],[0.1,0.2,0],[0.9,0.2,0],[0.5,0,0],[0.995,0.63,0],[0.72,0.99,0],[0.5,1,0],[0.28,0.99,0]];shape=mxgraph.kubernetes.icon2;kubernetesLabel=1;prIcon=user;labelPosition=center;align=center;" parent="1" vertex="1">
          <mxGeometry x="80.64" y="232" width="62.49" height="60" as="geometry" />
        </mxCell>
        <mxCell id="i6KSr7b9u-3ymFxsB6-P-39" style="rounded=0;orthogonalLoop=1;jettySize=auto;html=1;exitX=0.995;exitY=0.63;exitDx=0;exitDy=0;exitPerimeter=0;entryX=-0.025;entryY=0.533;entryDx=0;entryDy=0;entryPerimeter=0;" parent="1" source="i6KSr7b9u-3ymFxsB6-P-37" target="i6KSr7b9u-3ymFxsB6-P-45" edge="1">
          <mxGeometry relative="1" as="geometry">
            <mxPoint x="141" y="346.25" as="sourcePoint" />
            <mxPoint x="180" y="270" as="targetPoint" />
          </mxGeometry>
        </mxCell>
        <mxCell id="i6KSr7b9u-3ymFxsB6-P-40" value="Call wallet proxy" style="edgeStyle=orthogonalEdgeStyle;rounded=0;orthogonalLoop=1;jettySize=auto;html=1;fontSize=10;entryX=0.005;entryY=0.63;entryDx=0;entryDy=0;entryPerimeter=0;" parent="1" source="i6KSr7b9u-3ymFxsB6-P-45" target="i6KSr7b9u-3ymFxsB6-P-27" edge="1">
          <mxGeometry x="-0.3768" y="-12" relative="1" as="geometry">
            <mxPoint x="250" y="110" as="sourcePoint" />
            <mxPoint x="290" y="251" as="targetPoint" />
            <Array as="points" />
            <mxPoint as="offset" />
          </mxGeometry>
        </mxCell>
        <mxCell id="i6KSr7b9u-3ymFxsB6-P-41" value="Read processed blockchain information" style="edgeStyle=orthogonalEdgeStyle;rounded=0;orthogonalLoop=1;jettySize=auto;html=1;exitX=0.5;exitY=0;exitDx=0;exitDy=0;fontSize=10;" parent="1" source="i6KSr7b9u-3ymFxsB6-P-31" edge="1">
          <mxGeometry x="0.4659" y="10" relative="1" as="geometry">
            <mxPoint x="460" y="270" as="targetPoint" />
            <Array as="points">
              <mxPoint x="691" y="270" />
              <mxPoint x="460" y="270" />
            </Array>
            <mxPoint as="offset" />
          </mxGeometry>
        </mxCell>
        <mxCell id="i6KSr7b9u-3ymFxsB6-P-44" value="Wallet proxy APIs" style="text;html=1;align=center;verticalAlign=middle;whiteSpace=wrap;rounded=0;" parent="1" vertex="1">
          <mxGeometry x="400" y="286" width="60" height="30" as="geometry" />
        </mxCell>
        <mxCell id="i6KSr7b9u-3ymFxsB6-P-45" value="Wallet" style="html=1;verticalLabelPosition=top;align=center;labelBackgroundColor=#ffffff;verticalAlign=bottom;strokeWidth=2;strokeColor=#0080F0;shadow=0;dashed=0;shape=mxgraph.ios7.icons.smartphone;labelPosition=center;" parent="1" vertex="1">
          <mxGeometry x="190" y="238" width="40" height="60" as="geometry" />
        </mxCell>
        <mxCell id="i6KSr7b9u-3ymFxsB6-P-47" value="Transaction logger exporter" style="aspect=fixed;sketch=0;html=1;dashed=0;whitespace=wrap;verticalLabelPosition=bottom;verticalAlign=top;fillColor=#2875E2;strokeColor=#ffffff;points=[[0.005,0.63,0],[0.1,0.2,0],[0.9,0.2,0],[0.5,0,0],[0.995,0.63,0],[0.72,0.99,0],[0.5,1,0],[0.28,0.99,0]];shape=mxgraph.kubernetes.icon2;prIcon=job" parent="1" vertex="1">
          <mxGeometry x="389" y="123.75" width="50" height="48" as="geometry" />
        </mxCell>
        <mxCell id="i6KSr7b9u-3ymFxsB6-P-49" value="Send metrics" style="edgeStyle=orthogonalEdgeStyle;rounded=0;orthogonalLoop=1;jettySize=auto;html=1;entryX=1.02;entryY=0.505;entryDx=0;entryDy=0;entryPerimeter=0;fontSize=10;" parent="1" source="i6KSr7b9u-3ymFxsB6-P-47" target="i6KSr7b9u-3ymFxsB6-P-33" edge="1">
          <mxGeometry x="0.0317" y="-8" relative="1" as="geometry">
            <Array as="points" />
            <mxPoint as="offset" />
          </mxGeometry>
        </mxCell>
        <mxCell id="i6KSr7b9u-3ymFxsB6-P-51" value="Read database information" style="edgeStyle=orthogonalEdgeStyle;rounded=0;orthogonalLoop=1;jettySize=auto;html=1;entryX=0.995;entryY=0.63;entryDx=0;entryDy=0;entryPerimeter=0;exitX=0.75;exitY=0;exitDx=0;exitDy=0;fontSize=10;" parent="1" source="i6KSr7b9u-3ymFxsB6-P-31" target="i6KSr7b9u-3ymFxsB6-P-47" edge="1">
          <mxGeometry x="0.5424" y="-6" relative="1" as="geometry">
            <mxPoint x="710" y="370" as="sourcePoint" />
            <Array as="points">
              <mxPoint x="703" y="154" />
            </Array>
            <mxPoint as="offset" />
          </mxGeometry>
        </mxCell>
        <mxCell id="v4V0i2jS9VOgHvQ84-kZ-1" value="Reporter blockchain nodes" style="image;aspect=fixed;perimeter=ellipsePerimeter;html=1;align=center;shadow=0;dashed=0;fontColor=light-dark(#000000, #6592cd);labelBackgroundColor=default;fontSize=12;spacingTop=3;image=img/lib/ibm/blockchain/blockchain.svg;" vertex="1" parent="1">
          <mxGeometry x="51.25" y="414.32" width="60" height="60" as="geometry" />
        </mxCell>
        <mxCell id="v4V0i2jS9VOgHvQ84-kZ-3" value="" style="image;aspect=fixed;perimeter=ellipsePerimeter;html=1;align=center;shadow=0;dashed=0;fontColor=light-dark(#000000, #6592cd);labelBackgroundColor=default;fontSize=12;spacingTop=3;image=img/lib/ibm/blockchain/blockchain.svg;" vertex="1" parent="1">
          <mxGeometry x="78.13" y="350" width="60" height="60" as="geometry" />
        </mxCell>
        <mxCell id="v4V0i2jS9VOgHvQ84-kZ-5" value="" style="endArrow=classic;startArrow=classic;html=1;rounded=0;entryX=0;entryY=0;entryDx=0;entryDy=0;" edge="1" parent="1" target="i6KSr7b9u-3ymFxsB6-P-44">
          <mxGeometry width="50" height="50" relative="1" as="geometry">
            <mxPoint x="140" y="370" as="sourcePoint" />
            <mxPoint x="440" y="430" as="targetPoint" />
          </mxGeometry>
        </mxCell>
        <mxCell id="v4V0i2jS9VOgHvQ84-kZ-6" value="" style="image;aspect=fixed;perimeter=ellipsePerimeter;html=1;align=center;shadow=0;dashed=0;fontColor=light-dark(#000000, #6592cd);labelBackgroundColor=default;fontSize=12;spacingTop=3;image=img/lib/ibm/blockchain/blockchain.svg;" vertex="1" parent="1">
          <mxGeometry x="51.25" y="350" width="60" height="60" as="geometry" />
        </mxCell>
      </root>
    </mxGraphModel>
  </diagram>
</mxfile>
